<svg id="visual" viewBox="0 0 1920 1080" width="1920" height="1080" xmlns="http://www.w3.org/2000/svg" xmlns:xlink="http://www.w3.org/1999/xlink" version="1.1"><g stroke-width="1" stroke-linejoin="bevel"><path d="M997 556.1L970 686.4L1081 614.1Z" fill="#fff3e2" stroke="#fff3e2"></path><path d="M970 686.4L1086 743.4L1081 614.1Z" fill="#fff4e5" stroke="#fff4e5"></path><path d="M1254 458.9L1117 477.9L1081 614.1Z" fill="#fff7ec" stroke="#fff7ec"></path><path d="M1081 614.1L1117 477.9L997 556.1Z" fill="#fff6e9" stroke="#fff6e9"></path><path d="M1117 477.9L1000 401.6L997 556.1Z" fill="#fff9f0" stroke="#fff9f0"></path><path d="M997 556.1L746 567.1L970 686.4Z" fill="#fff5e8" stroke="#fff5e8"></path><path d="M1000 401.6L911 401.9L997 556.1Z" fill="#fff7ec" stroke="#fff7ec"></path><path d="M1086 743.4L1259 704.1L1081 614.1Z" fill="#fff9f0" stroke="#fff9f0"></path><path d="M911 401.9L746 567.1L997 556.1Z" fill="#fff6e9" stroke="#fff6e9"></path><path d="M1086 743.4L1214 815.4L1259 704.1Z" fill="#fff4e5" stroke="#fff4e5"></path><path d="M1191 876.7L1214 815.4L1086 743.4Z" fill="#fff7ea" stroke="#fff7ea"></path><path d="M1259 704.1L1254 458.9L1081 614.1Z" fill="#fff7ea" stroke="#fff7ea"></path><path d="M1117 477.9L1207 361.6L1000 401.6Z" fill="#fff8ed" stroke="#fff8ed"></path><path d="M898 995.7L1086 743.4L970 686.4Z" fill="#fff3e2" stroke="#fff3e2"></path><path d="M1015 1023.7L1191 876.7L1086 743.4Z" fill="#fff5e6" stroke="#fff5e6"></path><path d="M1214 815.4L1426 795.4L1259 704.1Z" fill="#fff5e8" stroke="#fff5e8"></path><path d="M911 401.9L724 510.9L746 567.1Z" fill="#fff3e2" stroke="#fff3e2"></path><path d="M1254 458.9L1207 361.6L1117 477.9Z" fill="#fff8ef" stroke="#fff8ef"></path><path d="M903 68.3L730 312.6L911 401.9Z" fill="#fff4e5" stroke="#fff4e5"></path><path d="M617 784.4L722 854.4L746 567.1Z" fill="#fff4e5" stroke="#fff4e5"></path><path d="M746 567.1L722 854.4L970 686.4Z" fill="#fff3e2" stroke="#fff3e2"></path><path d="M722 854.4L898 995.7L970 686.4Z" fill="#fff7ea" stroke="#fff7ea"></path><path d="M724 510.9L615 594.1L746 567.1Z" fill="#fff5e6" stroke="#fff5e6"></path><path d="M898 995.7L1015 1023.7L1086 743.4Z" fill="#fff4e3" stroke="#fff4e3"></path><path d="M1015 1023.7L1193 996.7L1191 876.7Z" fill="#fff4e3" stroke="#fff4e3"></path><path d="M1413 996.7L1426 795.4L1214 815.4Z" fill="#fff8ed" stroke="#fff8ed"></path><path d="M903 68.3L911 401.9L1000 401.6Z" fill="#fff7ec" stroke="#fff7ec"></path><path d="M911 401.9L730 312.6L724 510.9Z" fill="#fff5e8" stroke="#fff5e8"></path><path d="M542 509.9L544 571.1L615 594.1Z" fill="#fff5e8" stroke="#fff5e8"></path><path d="M615 594.1L617 784.4L746 567.1Z" fill="#fff6e9" stroke="#fff6e9"></path><path d="M722 854.4L795 1080L898 995.7Z" fill="#fff7ea" stroke="#fff7ea"></path><path d="M1361 266.6L1254 271.6L1207 361.6Z" fill="#fff6e9" stroke="#fff6e9"></path><path d="M1207 361.6L1131 78.3L1000 401.6Z" fill="#fff3e2" stroke="#fff3e2"></path><path d="M1361 266.6L1207 361.6L1254 458.9Z" fill="#fff6e9" stroke="#fff6e9"></path><path d="M1413 996.7L1214 815.4L1191 876.7Z" fill="#fff9f0" stroke="#fff9f0"></path><path d="M1259 704.1L1458 511.9L1254 458.9Z" fill="#fff4e5" stroke="#fff4e5"></path><path d="M617 784.4L666 915.7L722 854.4Z" fill="#fff9f0" stroke="#fff9f0"></path><path d="M898 995.7L968 1080L1015 1023.7Z" fill="#fff9f0" stroke="#fff9f0"></path><path d="M1015 1023.7L1130 1080L1193 996.7Z" fill="#fff4e3" stroke="#fff4e3"></path><path d="M795 1080L968 1080L898 995.7Z" fill="#fff5e8" stroke="#fff5e8"></path><path d="M1532 639.1L1458 511.9L1259 704.1Z" fill="#fff5e8" stroke="#fff5e8"></path><path d="M968 1080L1130 1080L1015 1023.7Z" fill="#fff4e3" stroke="#fff4e3"></path><path d="M1193 996.7L1413 996.7L1191 876.7Z" fill="#fff7ea" stroke="#fff7ea"></path><path d="M542 509.9L615 594.1L724 510.9Z" fill="#fff9f0" stroke="#fff9f0"></path><path d="M615 594.1L544 571.1L617 784.4Z" fill="#fff4e5" stroke="#fff4e5"></path><path d="M730 312.6L542 509.9L724 510.9Z" fill="#fff8ef" stroke="#fff8ef"></path><path d="M1130 1080L1199 1080L1193 996.7Z" fill="#fff6e9" stroke="#fff6e9"></path><path d="M666 915.7L795 1080L722 854.4Z" fill="#fff8ed" stroke="#fff8ed"></path><path d="M1458 511.9L1361 266.6L1254 458.9Z" fill="#fff7ea" stroke="#fff7ea"></path><path d="M1361 266.6L1283 197.3L1254 271.6Z" fill="#fff5e8" stroke="#fff5e8"></path><path d="M1254 271.6L1131 78.3L1207 361.6Z" fill="#fff9f0" stroke="#fff9f0"></path><path d="M1426 795.4L1532 639.1L1259 704.1Z" fill="#fff3e2" stroke="#fff3e2"></path><path d="M1458 511.9L1527 460.9L1361 266.6Z" fill="#fff7ec" stroke="#fff7ec"></path><path d="M770 80.3L647 234.6L730 312.6Z" fill="#fff3e2" stroke="#fff3e2"></path><path d="M730 312.6L647 234.6L542 509.9Z" fill="#fff7ea" stroke="#fff7ea"></path><path d="M1532 639.1L1527 460.9L1458 511.9Z" fill="#fff9f0" stroke="#fff9f0"></path><path d="M1199 1080L1413 996.7L1193 996.7Z" fill="#fff7ec" stroke="#fff7ec"></path><path d="M1426 795.4L1582 669.1L1532 639.1Z" fill="#fff9f0" stroke="#fff9f0"></path><path d="M380 739.4L500 850.7L617 784.4Z" fill="#fff3e2" stroke="#fff3e2"></path><path d="M617 784.4L500 850.7L666 915.7Z" fill="#fff4e3" stroke="#fff4e3"></path><path d="M666 915.7L611 1080L795 1080Z" fill="#fff5e6" stroke="#fff5e6"></path><path d="M380 739.4L617 784.4L544 571.1Z" fill="#fff8ed" stroke="#fff8ed"></path><path d="M1283 197.3L1131 78.3L1254 271.6Z" fill="#fff8ed" stroke="#fff8ed"></path><path d="M1413 996.7L1511 895.7L1426 795.4Z" fill="#fff8ef" stroke="#fff8ef"></path><path d="M1131 78.3L903 68.3L1000 401.6Z" fill="#fff3e2" stroke="#fff3e2"></path><path d="M1511 895.7L1582 669.1L1426 795.4Z" fill="#fff8ed" stroke="#fff8ed"></path><path d="M1532 639.1L1698 481.9L1527 460.9Z" fill="#fff7ea" stroke="#fff7ea"></path><path d="M533 233.6L458 461.9L542 509.9Z" fill="#fff6e9" stroke="#fff6e9"></path><path d="M542 509.9L458 461.9L544 571.1Z" fill="#fff5e8" stroke="#fff5e8"></path><path d="M903 68.3L770 80.3L730 312.6Z" fill="#fff8ef" stroke="#fff8ef"></path><path d="M647 234.6L533 233.6L542 509.9Z" fill="#fff9f0" stroke="#fff9f0"></path><path d="M553 1080L611 1080L666 915.7Z" fill="#fff8ef" stroke="#fff8ef"></path><path d="M770 80.3L597 182.3L647 234.6Z" fill="#fff8ed" stroke="#fff8ed"></path><path d="M597 182.3L533 233.6L647 234.6Z" fill="#fff8ed" stroke="#fff8ed"></path><path d="M1131 78.3L1033 0L903 68.3Z" fill="#fff7ea" stroke="#fff7ea"></path><path d="M903 68.3L808 0L770 80.3Z" fill="#fff7ea" stroke="#fff7ea"></path><path d="M1186 0L1033 0L1131 78.3Z" fill="#fff7ea" stroke="#fff7ea"></path><path d="M336 607.1L380 739.4L544 571.1Z" fill="#fff7ec" stroke="#fff7ec"></path><path d="M500 850.7L553 1080L666 915.7Z" fill="#fff4e3" stroke="#fff4e3"></path><path d="M1699 245.6L1522 239.6L1527 460.9Z" fill="#fff3e2" stroke="#fff3e2"></path><path d="M1527 460.9L1522 239.6L1361 266.6Z" fill="#fff4e5" stroke="#fff4e5"></path><path d="M1361 266.6L1427 71.3L1283 197.3Z" fill="#fff5e8" stroke="#fff5e8"></path><path d="M1283 197.3L1186 0L1131 78.3Z" fill="#fff5e6" stroke="#fff5e6"></path><path d="M373 998.7L553 1080L500 850.7Z" fill="#fff7ec" stroke="#fff7ec"></path><path d="M1359 0L1186 0L1283 197.3Z" fill="#fff3e2" stroke="#fff3e2"></path><path d="M1033 0L808 0L903 68.3Z" fill="#fff8ed" stroke="#fff8ed"></path><path d="M770 80.3L606 0L597 182.3Z" fill="#fff4e5" stroke="#fff4e5"></path><path d="M597 182.3L453 156.3L533 233.6Z" fill="#fff4e3" stroke="#fff4e3"></path><path d="M254 484.9L336 607.1L458 461.9Z" fill="#fff3e2" stroke="#fff3e2"></path><path d="M458 461.9L336 607.1L544 571.1Z" fill="#fff5e8" stroke="#fff5e8"></path><path d="M1413 996.7L1519 1080L1511 895.7Z" fill="#fff9f0" stroke="#fff9f0"></path><path d="M1511 895.7L1685 751.4L1582 669.1Z" fill="#fff8ed" stroke="#fff8ed"></path><path d="M1199 1080L1519 1080L1413 996.7Z" fill="#fff6e9" stroke="#fff6e9"></path><path d="M1748 803.4L1685 751.4L1511 895.7Z" fill="#fff8ef" stroke="#fff8ef"></path><path d="M1582 669.1L1698 481.9L1532 639.1Z" fill="#fff8ed" stroke="#fff8ed"></path><path d="M1522 239.6L1427 71.3L1361 266.6Z" fill="#fff5e6" stroke="#fff5e6"></path><path d="M1809 608.1L1698 481.9L1582 669.1Z" fill="#fff6e9" stroke="#fff6e9"></path><path d="M1640 0L1411 0L1427 71.3Z" fill="#fff4e3" stroke="#fff4e3"></path><path d="M1427 71.3L1359 0L1283 197.3Z" fill="#fff8ef" stroke="#fff8ef"></path><path d="M535 0L453 156.3L597 182.3Z" fill="#fff4e3" stroke="#fff4e3"></path><path d="M533 233.6L268 301.6L458 461.9Z" fill="#fff5e8" stroke="#fff5e8"></path><path d="M380 739.4L373 998.7L500 850.7Z" fill="#fff3e2" stroke="#fff3e2"></path><path d="M222 831.4L373 998.7L380 739.4Z" fill="#fff5e6" stroke="#fff5e6"></path><path d="M1519 1080L1599 1080L1511 895.7Z" fill="#fff9f0" stroke="#fff9f0"></path><path d="M1648 56.3L1427 71.3L1522 239.6Z" fill="#fff4e3" stroke="#fff4e3"></path><path d="M1427 71.3L1411 0L1359 0Z" fill="#fff4e5" stroke="#fff4e5"></path><path d="M808 0L606 0L770 80.3Z" fill="#fff4e5" stroke="#fff4e5"></path><path d="M1769 1002.7L1748 803.4L1511 895.7Z" fill="#fff9f0" stroke="#fff9f0"></path><path d="M1685 751.4L1809 608.1L1582 669.1Z" fill="#fff7ea" stroke="#fff7ea"></path><path d="M268 301.6L254 484.9L458 461.9Z" fill="#fff3e2" stroke="#fff3e2"></path><path d="M336 607.1L202 709.4L380 739.4Z" fill="#fff5e8" stroke="#fff5e8"></path><path d="M606 0L535 0L597 182.3Z" fill="#fff3e2" stroke="#fff3e2"></path><path d="M453 156.3L356 181.3L533 233.6Z" fill="#fff4e3" stroke="#fff4e3"></path><path d="M1770 170.3L1699 245.6L1920 322.6Z" fill="#fff6e9" stroke="#fff6e9"></path><path d="M1698 481.9L1699 245.6L1527 460.9Z" fill="#fff4e3" stroke="#fff4e3"></path><path d="M305 0L356 181.3L453 156.3Z" fill="#fff5e6" stroke="#fff5e6"></path><path d="M1748 803.4L1809 608.1L1685 751.4Z" fill="#fff9f0" stroke="#fff9f0"></path><path d="M356 181.3L268 301.6L533 233.6Z" fill="#fff8ed" stroke="#fff8ed"></path><path d="M139 470.9L202 709.4L254 484.9Z" fill="#fff3e2" stroke="#fff3e2"></path><path d="M254 484.9L202 709.4L336 607.1Z" fill="#fff8ef" stroke="#fff8ef"></path><path d="M202 709.4L222 831.4L380 739.4Z" fill="#fff5e6" stroke="#fff5e6"></path><path d="M1599 1080L1769 1002.7L1511 895.7Z" fill="#fff6e9" stroke="#fff6e9"></path><path d="M1920 682.4L1920 587.1L1809 608.1Z" fill="#fff5e6" stroke="#fff5e6"></path><path d="M144 922.7L330 1080L373 998.7Z" fill="#fff5e8" stroke="#fff5e8"></path><path d="M373 998.7L330 1080L553 1080Z" fill="#fff5e6" stroke="#fff5e6"></path><path d="M1690 1080L1769 1002.7L1599 1080Z" fill="#fff7ec" stroke="#fff7ec"></path><path d="M1770 170.3L1648 56.3L1699 245.6Z" fill="#fff8ed" stroke="#fff8ed"></path><path d="M1699 245.6L1648 56.3L1522 239.6Z" fill="#fff7ec" stroke="#fff7ec"></path><path d="M80 221.6L139 470.9L268 301.6Z" fill="#fff3e2" stroke="#fff3e2"></path><path d="M268 301.6L139 470.9L254 484.9Z" fill="#fff8ed" stroke="#fff8ed"></path><path d="M0 847.4L144 922.7L222 831.4Z" fill="#fff5e8" stroke="#fff5e8"></path><path d="M1920 322.6L1699 245.6L1698 481.9Z" fill="#fff5e8" stroke="#fff5e8"></path><path d="M1820 0L1640 0L1648 56.3Z" fill="#fff8ed" stroke="#fff8ed"></path><path d="M1648 56.3L1640 0L1427 71.3Z" fill="#fff9f0" stroke="#fff9f0"></path><path d="M1920 682.4L1809 608.1L1748 803.4Z" fill="#fff8ed" stroke="#fff8ed"></path><path d="M1809 608.1L1920 458.9L1698 481.9Z" fill="#fff6e9" stroke="#fff6e9"></path><path d="M1920 993.7L1920 682.4L1748 803.4Z" fill="#fff4e3" stroke="#fff4e3"></path><path d="M0 847.4L222 831.4L202 709.4Z" fill="#fff4e3" stroke="#fff4e3"></path><path d="M222 831.4L144 922.7L373 998.7Z" fill="#fff6e9" stroke="#fff6e9"></path><path d="M1920 587.1L1920 458.9L1809 608.1Z" fill="#fff9f0" stroke="#fff9f0"></path><path d="M535 0L305 0L453 156.3Z" fill="#fff8ef" stroke="#fff8ef"></path><path d="M356 181.3L151 125.3L268 301.6Z" fill="#fff9f0" stroke="#fff9f0"></path><path d="M139 470.9L66 657.1L202 709.4Z" fill="#fff5e6" stroke="#fff5e6"></path><path d="M0 590.1L66 657.1L139 470.9Z" fill="#fff5e6" stroke="#fff5e6"></path><path d="M1920 458.9L1920 322.6L1698 481.9Z" fill="#fff7ec" stroke="#fff7ec"></path><path d="M1770 170.3L1820 0L1648 56.3Z" fill="#fff4e3" stroke="#fff4e3"></path><path d="M0 1012.7L154 1080L144 922.7Z" fill="#fff4e5" stroke="#fff4e5"></path><path d="M144 922.7L154 1080L330 1080Z" fill="#fff4e3" stroke="#fff4e3"></path><path d="M1920 1080L1920 993.7L1769 1002.7Z" fill="#fff3e2" stroke="#fff3e2"></path><path d="M1769 1002.7L1920 993.7L1748 803.4Z" fill="#fff5e8" stroke="#fff5e8"></path><path d="M305 0L151 125.3L356 181.3Z" fill="#fff8ed" stroke="#fff8ed"></path><path d="M305 0L222 0L151 125.3Z" fill="#fff4e3" stroke="#fff4e3"></path><path d="M0 459.9L0 590.1L139 470.9Z" fill="#fff5e8" stroke="#fff5e8"></path><path d="M66 657.1L0 847.4L202 709.4Z" fill="#fff8ef" stroke="#fff8ef"></path><path d="M151 125.3L80 221.6L268 301.6Z" fill="#fff7ec" stroke="#fff7ec"></path><path d="M0 239.6L80 221.6L0 104.3Z" fill="#fff5e8" stroke="#fff5e8"></path><path d="M1690 1080L1920 1080L1769 1002.7Z" fill="#fff7ea" stroke="#fff7ea"></path><path d="M80 221.6L0 459.9L139 470.9Z" fill="#fff6e9" stroke="#fff6e9"></path><path d="M1920 81.3L1820 0L1770 170.3Z" fill="#fff8ed" stroke="#fff8ed"></path><path d="M0 590.1L0 847.4L66 657.1Z" fill="#fff7ea" stroke="#fff7ea"></path><path d="M1920 322.6L1920 81.3L1770 170.3Z" fill="#fff7ea" stroke="#fff7ea"></path><path d="M0 847.4L0 1012.7L144 922.7Z" fill="#fff8ef" stroke="#fff8ef"></path><path d="M0 104.3L80 221.6L151 125.3Z" fill="#fff4e5" stroke="#fff4e5"></path><path d="M80 221.6L0 239.6L0 459.9Z" fill="#fff9f0" stroke="#fff9f0"></path><path d="M1920 81.3L1920 0L1820 0Z" fill="#fff9f0" stroke="#fff9f0"></path><path d="M0 1012.7L0 1080L154 1080Z" fill="#fff3e2" stroke="#fff3e2"></path><path d="M0 0L0 104.3L151 125.3Z" fill="#fff7ec" stroke="#fff7ec"></path><path d="M222 0L0 0L151 125.3Z" fill="#fff5e8" stroke="#fff5e8"></path></g></svg>